<svg viewBox="-17.5 -17.5 35 35" xmlns="http://www.w3.org/2000/svg" version="1.1">
  <g transform="translate(-17.5 -17.5) scale(0.3431372549019608)">
    <g fill="#333">
      <rect x="1" y="1" width="100" height="100" rx="8" ry="8" vector-effect="non-scaling-stroke"></rect>
    </g>
  </g>
  <g transform="translate(-10.491587504457868 -11.61146034195226) scale(0.22222073402930465)">
    <g fill="#fff">
      <path d="M87.681 55.066c-2.364-5.685-6.373-10.247-10.251-14.659l-.277-.315c-3.886-4.423-7.238-8.458-8.904-13.053-1.706-4.708-1.114-9.624 1.51-12.525 1.366-1.509 3.717-2.444 5.987-2.403 1.014.022 2.892.274 4.077 1.705a3.555 3.555 0 0 0 5.476-4.532c-2.214-2.675-5.551-4.194-9.396-4.278-4.382-.105-8.641 1.676-11.414 4.74-4.434 4.901-5.553 12.455-2.922 19.715 2.088 5.762 5.876 10.348 10.246 15.322l.278.317c3.658 4.162 7.113 8.093 9.027 12.696 2.944 7.081 1.726 15.562-3.103 21.607-2.339 2.928-5.308 5.248-8.486 6.717 3.874-25.146-8.126-47.252-28.184-57.599a5.726 5.726 0 0 0-.474-.216c.721-1.498 1.151-3.093 1.151-4.749 0-2.459-.585-4.746-1.623-6.76.062-.185.099-.383.099-.596l.001-9.276a1.862 1.862 0 0 0-2.65-1.687l-7.823 3.657a17.252 17.252 0 0 0-3.924-.449c-1.363 0-2.686.157-3.948.454L14.32 5.237a1.862 1.862 0 0 0-2.65 1.687l.001 9.276c0 .233.045.449.118.648a14.703 14.703 0 0 0-1.592 6.708c0 5.32 4.401 10.014 8.802 12.823v53.147a4.772 4.772 0 0 0-1.737 3.688c0 2.323 7.397 2.194 9.181.692 1.538 1.829 9.301 1.212 9.301-.692a4.767 4.767 0 0 0-1.398-3.379V75.182c1.487 3.564 2.904 7.533 4.288 11.342.183.503.411.982.68 1.438a3.684 3.684 0 0 0-1.993 3.272v.075a3.687 3.687 0 0 0 3.687 3.687h16.325c.258 0 .509-.027.752-.077l.89.026a88.06 88.06 0 0 0 2.592.052c.934 0 1.842-.032 2.777-.13 7.115-.745 14.3-4.867 19.222-11.028 6.425-8.042 8.04-19.335 4.115-28.773zM27.578 89.832a4.79 4.79 0 0 0-1.072 1.653 4.78 4.78 0 0 0-.734-1.273V63.181c.218.113.443.22.677.321.382.164.758.392 1.128.668v25.662z"></path>
    </g>
  </g>
</svg>